<svg width="20" height="21" viewBox="0 0 20 21" fill="none" xmlns="http://www.w3.org/2000/svg">
<path opacity="0.4" d="M14.6667 0.470703H5.33333C1.92889 0.470703 0 2.39959 0 5.80404V15.1374C0 18.5329 1.92 20.4707 5.33333 20.4707H14.6667C18.0711 20.4707 20 18.5329 20 15.1374V5.80404C20 2.39959 18.0711 0.470703 14.6667 0.470703Z" fill="white"/>
<path d="M13.3205 11.179H10.7495V13.7277C10.7495 14.138 10.4139 14.4707 10 14.4707C9.58605 14.4707 9.25048 14.138 9.25048 13.7277V11.179H6.67954C6.29342 11.1394 6 10.8168 6 10.432C6 10.0472 6.29342 9.72465 6.67954 9.68501H9.24242V7.14436C9.28241 6.76158 9.60778 6.4707 9.99597 6.4707C10.3842 6.4707 10.7095 6.76158 10.7495 7.14436V9.68501H13.3205C13.7066 9.72465 14 10.0472 14 10.432C14 10.8168 13.7066 11.1394 13.3205 11.179Z" fill="white"/>
</svg>
