<svg width="24" height="25" viewBox="0 0 24 25" fill="none" xmlns="http://www.w3.org/2000/svg">
<path d="M10.1528 6.02702C10.2037 6.13069 10.2373 6.24171 10.2524 6.35583L10.5308 10.4958L10.669 12.5766C10.6705 12.7906 10.704 13.0032 10.7687 13.2075C10.9356 13.6041 11.3372 13.8561 11.7741 13.8385L18.4313 13.403C18.7196 13.3983 18.998 13.5061 19.2052 13.7028C19.3779 13.8667 19.4894 14.0811 19.5246 14.3117L19.5364 14.4517C19.2609 18.2664 16.4592 21.4482 12.6524 22.2695C8.84555 23.0908 4.94186 21.3558 3.06071 18.0064C2.51839 17.0333 2.17965 15.9637 2.06438 14.8605C2.01623 14.5339 1.99503 14.204 2.00098 13.874C1.99503 9.78423 4.90747 6.24845 8.98433 5.39606C9.47501 5.31966 9.95603 5.57942 10.1528 6.02702Z" fill="white"/>
<path opacity="0.4" d="M12.8706 2.47152C17.4304 2.58753 21.2629 5.86649 22.0006 10.283L21.9935 10.3156L21.9734 10.363L21.9762 10.4931C21.9657 10.6654 21.8992 10.8312 21.7845 10.9652C21.6651 11.1047 21.5019 11.1997 21.3221 11.2366L21.2125 11.2517L13.5318 11.7493C13.2763 11.7745 13.0219 11.6921 12.8319 11.5227C12.6736 11.3814 12.5724 11.1908 12.5438 10.9854L12.0282 3.31577C12.0192 3.28983 12.0192 3.26172 12.0282 3.23578C12.0353 3.02438 12.1283 2.82454 12.2866 2.68093C12.4449 2.53732 12.6552 2.4619 12.8706 2.47152Z" fill="white"/>
</svg>
