<svg width="24" height="25" viewBox="0 0 24 25" fill="none" xmlns="http://www.w3.org/2000/svg">
<path opacity="0.4" d="M16.191 2.4707H7.81C4.77 2.4707 3 4.2507 3 7.3007V17.6307C3 20.7307 4.77 22.4707 7.81 22.4707H16.191C19.28 22.4707 21 20.7307 21 17.6307V7.3007C21 4.2507 19.28 2.4707 16.191 2.4707Z" fill="white"/>
<path d="M8.08094 16.2111H15.9209C16.3199 16.2511 16.6209 16.5911 16.6209 17.0011C16.6209 17.4001 16.3199 17.7411 15.9209 17.7811H8.08094C7.78094 17.8211 7.49094 17.6711 7.33094 17.4211C7.17094 17.1611 7.17094 16.8311 7.33094 16.5811C7.49094 16.3211 7.78094 16.1811 8.08094 16.2111ZM15.9209 11.6501C16.3509 11.6501 16.7009 12.0011 16.7009 12.4311C16.7009 12.8611 16.3509 13.2111 15.9209 13.2111H8.08094C7.64994 13.2111 7.30094 12.8611 7.30094 12.4311C7.30094 12.0011 7.64994 11.6501 8.08094 11.6501H15.9209ZM11.0699 7.12109C11.5009 7.12109 11.8509 7.47109 11.8509 7.90009C11.8509 8.34109 11.5009 8.69109 11.0699 8.69109H8.08094C7.64994 8.69109 7.30094 8.34109 7.30094 7.91109C7.30094 7.48109 7.64994 7.13109 8.08094 7.13109V7.12109H11.0699Z" fill="white"/>
</svg>
