<svg width="20" height="21" viewBox="0 0 20 21" fill="none" xmlns="http://www.w3.org/2000/svg">
<path opacity="0.4" d="M0 16.0237C0 18.4747 2.03024 20.4707 4.52453 20.4707H9.48564C11.9748 20.4707 14 18.4807 14 16.0337V4.9177C14 2.4657 11.9698 0.470703 9.47445 0.470703H4.51537C2.02515 0.470703 0 2.4607 0 4.9077V5.8477V16.0237Z" fill="white"/>
<path d="M19.7792 11.0166L16.9334 13.9256C16.6393 14.2256 16.166 14.2256 15.8728 13.9236C15.5807 13.6216 15.5816 13.1346 15.8748 12.8346L17.434 11.2416H15.9391H7.54875C7.13483 11.2416 6.79883 10.8966 6.79883 10.4716C6.79883 10.0456 7.13483 9.70164 7.54875 9.70164H17.434L15.8748 8.10864C15.5816 7.80864 15.5807 7.32164 15.8728 7.01964C16.0199 6.86864 16.2118 6.79264 16.4046 6.79264C16.5955 6.79264 16.7873 6.86864 16.9334 7.01764L19.7792 9.92564C19.9204 10.0706 20.0003 10.2666 20.0003 10.4716C20.0003 10.6756 19.9204 10.8716 19.7792 11.0166Z" fill="white"/>
</svg>
