<svg width="20" height="21" viewBox="0 0 20 21" fill="none" xmlns="http://www.w3.org/2000/svg">
<path d="M7.14373 19.2528V16.1859C7.14372 15.4088 7.77567 14.7774 8.55843 14.7725H11.4326C12.2189 14.7725 12.8563 15.4053 12.8563 16.1859V19.2439C12.8562 19.918 13.404 20.4658 14.0829 20.4707H16.0438C16.9596 20.473 17.8388 20.1135 18.4872 19.4714C19.1356 18.8293 19.5 17.9575 19.5 17.0482V8.33655C19.5 7.60209 19.1721 6.90541 18.6046 6.4342L11.943 1.14497C10.7785 0.219826 9.11537 0.249711 7.98539 1.21609L1.46701 6.4342C0.872741 6.89152 0.517552 7.59026 0.5 8.33655V17.0393C0.5 18.9344 2.04738 20.4707 3.95617 20.4707H5.87229C6.19917 20.473 6.51349 20.3458 6.74547 20.1171C6.97746 19.8885 7.10792 19.5774 7.10792 19.2528H7.14373Z" fill="white"/>
</svg>
