<svg width="20" height="19" viewBox="0 0 20 19" fill="none" xmlns="http://www.w3.org/2000/svg">
<path opacity="0.4" d="M20 13.4107C20 16.2007 17.76 18.4607 14.97 18.4707H14.96H5.05C2.27 18.4707 0 16.2207 0 13.4307V13.4207C0 13.4207 0.006 8.9947 0.014 6.7687C0.015 6.3507 0.495 6.1167 0.822 6.3767C3.198 8.2617 7.447 11.6987 7.5 11.7437C8.21 12.3127 9.11 12.6337 10.03 12.6337C10.95 12.6337 11.85 12.3127 12.56 11.7327C12.613 11.6977 16.767 8.3637 19.179 6.4477C19.507 6.1867 19.989 6.4207 19.99 6.8377C20 9.0467 20 13.4107 20 13.4107Z" fill="white"/>
<path d="M19.4769 3.1447C18.6109 1.5127 16.9069 0.470703 15.0309 0.470703H5.05086C3.17486 0.470703 1.47086 1.5127 0.60486 3.1447C0.41086 3.5097 0.50286 3.9647 0.82586 4.2227L8.25086 10.1617C8.77086 10.5817 9.40086 10.7907 10.0309 10.7907C10.0349 10.7907 10.0379 10.7907 10.0409 10.7907C10.0439 10.7907 10.0479 10.7907 10.0509 10.7907C10.6809 10.7907 11.3109 10.5817 11.8309 10.1617L19.2559 4.2227C19.5789 3.9647 19.6709 3.5097 19.4769 3.1447Z" fill="white"/>
</svg>
