<svg width="20" height="21" viewBox="0 0 20 21" fill="none" xmlns="http://www.w3.org/2000/svg">
<path d="M10.0117 13.3004C8.40726 13.3004 7.10938 12.0504 7.10938 10.4804C7.10938 8.91039 8.40726 7.65039 10.0117 7.65039C11.6162 7.65039 12.8834 8.91039 12.8834 10.4804C12.8834 12.0504 11.6162 13.3004 10.0117 13.3004Z" fill="white"/>
<path opacity="0.4" d="M19.2301 12.8407C19.036 12.5407 18.76 12.2407 18.4023 12.0507C18.1162 11.9107 17.9322 11.6807 17.7687 11.4107C17.2475 10.5507 17.5541 9.4207 18.4228 8.9107C19.4447 8.3407 19.7718 7.0707 19.179 6.0807L18.4943 4.9007C17.9118 3.9107 16.6344 3.5607 15.6226 4.1407C14.7233 4.6207 13.5685 4.3007 13.0473 3.4507C12.8838 3.1707 12.7918 2.8707 12.8122 2.5707C12.8429 2.1807 12.7203 1.8107 12.5363 1.5107C12.1582 0.890703 11.4735 0.470703 10.7172 0.470703H9.27627C8.53024 0.490703 7.84552 0.890703 7.4674 1.5107C7.27323 1.8107 7.16081 2.1807 7.18125 2.5707C7.20169 2.8707 7.10972 3.1707 6.9462 3.4507C6.425 4.3007 5.27019 4.6207 4.38109 4.1407C3.35913 3.5607 2.09191 3.9107 1.49917 4.9007L0.814459 6.0807C0.231943 7.0707 0.55897 8.3407 1.57071 8.9107C2.43937 9.4207 2.74596 10.5507 2.23498 11.4107C2.06125 11.6807 1.87729 11.9107 1.59115 12.0507C1.24368 12.2407 0.937094 12.5407 0.773581 12.8407C0.395456 13.4607 0.415896 14.2407 0.79402 14.8907L1.49917 16.0907C1.87729 16.7307 2.58244 17.1307 3.31825 17.1307C3.66572 17.1307 4.0745 17.0307 4.40153 16.8307C4.65702 16.6607 4.96361 16.6007 5.30085 16.6007C6.31259 16.6007 7.16081 17.4307 7.18125 18.4207C7.18125 19.5707 8.12145 20.4707 9.30692 20.4707H10.6968C11.872 20.4707 12.8122 19.5707 12.8122 18.4207C12.8429 17.4307 13.6911 16.6007 14.7029 16.6007C15.0299 16.6007 15.3365 16.6607 15.6022 16.8307C15.9292 17.0307 16.3278 17.1307 16.6855 17.1307C17.411 17.1307 18.1162 16.7307 18.4943 16.0907L19.2097 14.8907C19.5776 14.2207 19.6083 13.4607 19.2301 12.8407Z" fill="white"/>
</svg>
